<?xml version="1.0" encoding="UTF-8"?>
<svg id="Layer_1" xmlns="http://www.w3.org/2000/svg" version="1.1" viewBox="0 0 693.9 704.5">
  <!-- Generator: Adobe Illustrator 29.3.0, SVG Export Plug-In . SVG Version: 2.1.0 Build 146)  -->
  <path d="M573,125.7c-4,0-7.9,0-11.9,0h0s-441.6,0-441.6,0h0v453.5h453.5V125.7h0ZM545.2,550.6H147.4V154.3h397.8v396.3Z"/>
  <path d="M333,520.1v4.4h26.6v-4.9c0-.1,0-.3,0-.4,0-112.4,0-224.8,0-337.2,0-1.2-.3-1.4-1.4-1.4-7.9,0-15.8,0-23.6,0s-1.6,0-1.6,1.6c0,56.1,0,112.2,0,168.2s0,112.2,0,168.2c0,.7,0,1.1,0,1.3Z"/>
  <path d="M412.6,497.9h0c0-39.5,0-79,0-118.4,0-1.7-.2-1.5,1.5-1.5,25.5,0,51.1,0,76.6,0,1.8,0,1.5-.2,1.5,1.5,0,46.5,0,93.1,0,139.6,0,.1,0,.2,0,.4v5h26.6v-26.6h0c0-49.1,0-98.2,0-147.3s0-112.4,0-168.6c0-1-.2-1.4-1.3-1.4-43.4,0-86.9,0-130.3,0-1,0-1.3.2-1.3,1.3,0,105.3,0,210.6,0,316h0v26.6h26.6v-26.6ZM412.6,209.4c0-1.1.2-1.5,1.4-1.5,25.7,0,51.3,0,77,0,1,0,1.3.3,1.3,1.3,0,23.3,0,46.7,0,70s0,46.5,0,69.7c0,1.6.2,1.5-1.5,1.5-25.6,0-51.2,0-76.7,0-1.1,0-1.4-.3-1.4-1.5,0-46.5,0-93.1,0-139.6Z"/>
  <path d="M200.3,519.8c0-.3,0-.6,0-1.2,0-46.4,0-92.7,0-139.1,0-1.8-.2-1.6,1.6-1.6,25.5,0,50.9,0,76.4,0,1.8,0,1.6-.2,1.6,1.6,0,46.5,0,92.9,0,139.4,0,.7,0,1.1,0,1.3v4.3h26.6v-26.6h0c0-105.2,0-210.4,0-315.6,0-1.9.2-1.6-1.5-1.6-43.3,0-86.6,0-129.8,0s-1.5,0-1.5,1.6v168.2c0,49.1,0,98.2,0,147.3h0v26.6h26.6v-4.7ZM201.8,207.9c25.6,0,51.2,0,76.7,0,1.1,0,1.4.3,1.4,1.5,0,46.5,0,93.1,0,139.6,0,1.2-.2,1.5-1.4,1.5-25.6,0-51.2,0-76.7,0-1.1,0-1.4-.3-1.4-1.5,0-23.3,0-46.5,0-69.8s0-46.5,0-69.8c0-1.2.3-1.5,1.4-1.5Z"/>
</svg>