<svg xmlns="http://www.w3.org/2000/svg" width="420" height="560" viewBox="0 0 420 560">
  <defs>
    <linearGradient id="bg" x1="0" y1="0" x2="0" y2="1">
      <stop offset="0%" stop-color="#fff8ef"/>
      <stop offset="100%" stop-color="#f3e9d8"/>
    </linearGradient>
  </defs>
  <rect width="420" height="560" fill="#e5dcc8"/>
  <rect x="28" y="24" width="364" height="512" rx="6" fill="url(#bg)" stroke="#8d6e3f" stroke-width="2"/>
  <rect x="28" y="24" width="364" height="8" fill="#2a7a2a"/>
  <text x="210" y="78" text-anchor="middle" font-family="Arial,sans-serif" font-size="15" font-weight="700" fill="#2a7a2a">*B1J1 *-DJD 'D*1()</text>
  <text x="210" y="102" text-anchor="middle" font-family="Arial,sans-serif" font-size="12" fill="#555">Soil Analysis Report</text>
  <rect x="70" y="120" width="280" height="28" rx="14" fill="#2a7a2a"/>
  <text x="210" y="139" text-anchor="middle" font-family="Arial,sans-serif" font-size="13" font-weight="700" fill="#fff">A-5 *1() � F.JD *E1</text>
  <rect x="198" y="230" width="24" height="110" rx="8" fill="#a67c52"/>
  <ellipse cx="210" cy="220" rx="70" ry="28" fill="#2e7d32"/>
  <ellipse cx="160" cy="235" rx="42" ry="16" fill="#388e3c" transform="rotate(-35 160 235)"/>
  <ellipse cx="260" cy="235" rx="42" ry="16" fill="#388e3c" transform="rotate(35 260 235)"/>
  <ellipse cx="175" cy="205" rx="36" ry="14" fill="#43a047" transform="rotate(-55 175 205)"/>
  <ellipse cx="245" cy="205" rx="36" ry="14" fill="#43a047" transform="rotate(55 245 205)"/>
  <circle cx="188" cy="268" r="7" fill="#c62828"/>
  <circle cx="228" cy="278" r="7" fill="#b71c1c"/>
  <circle cx="205" cy="290" r="6" fill="#d32f2f"/>
  <text x="210" y="380" text-anchor="middle" font-family="Arial,sans-serif" font-size="14" font-weight="700" fill="#1a3a1a">#JEF 'D3'DE</text>
  <text x="210" y="404" text-anchor="middle" font-family="Arial,sans-serif" font-size="12" fill="#666">Ayman Al-Salem � Dubai</text>
  <rect x="58" y="430" width="304" height="10" rx="3" fill="#e0d2b8"/>
  <rect x="58" y="450" width="260" height="8" rx="3" fill="#e8dcc4"/>
  <text x="210" y="500" text-anchor="middle" font-family="Arial,sans-serif" font-size="11" fill="#2a7a2a">A4 � PDF</text>
</svg>
